<?xml version="1.0" encoding="UTF-8" standalone="no"?>
<!-- Created with Inkscape (http://www.inkscape.org/) -->

<svg
   width="2000"
   height="1122.5197"
   viewBox="0 0 529.16634 296.99999"
   version="1.1"
   id="svg1"
   inkscape:version="1.3 (0e150ed6c4, 2023-07-21)"
   sodipodi:docname="pieza 2d.svg"
   xmlns:inkscape="http://www.inkscape.org/namespaces/inkscape"
   xmlns:sodipodi="http://sodipodi.sourceforge.net/DTD/sodipodi-0.dtd"
   xmlns="http://www.w3.org/2000/svg"
   xmlns:svg="http://www.w3.org/2000/svg">
  <sodipodi:namedview
     id="namedview1"
     pagecolor="#ffffff"
     bordercolor="#000000"
     borderopacity="0.25"
     inkscape:showpageshadow="2"
     inkscape:pageopacity="0.0"
     inkscape:pagecheckerboard="0"
     inkscape:deskcolor="#d1d1d1"
     inkscape:document-units="px"
     inkscape:zoom="0.38351221"
     inkscape:cx="732.70158"
     inkscape:cy="616.66877"
     inkscape:window-width="2560"
     inkscape:window-height="1057"
     inkscape:window-x="-8"
     inkscape:window-y="-8"
     inkscape:window-maximized="1"
     inkscape:current-layer="layer1" />
  <defs
     id="defs1" />
  <g
     inkscape:label="Layer 1"
     inkscape:groupmode="layer"
     id="layer1">
    <circle
       style="fill:none;stroke:#000000;stroke-width:0.264583;stroke-linecap:round;stroke-linejoin:round;stroke-miterlimit:1.7;stroke-dasharray:none"
       id="circle10112"
       cx="113.47023"
       cy="147.05443"
       r="88.329147" />
    <path
       id="path10112"
       style="fill:none;stroke:#000000;stroke-width:0.264583;stroke-linecap:round;stroke-linejoin:round;stroke-miterlimit:1.7;stroke-dasharray:none"
       d="m 113.47021,77.771354 a 69.28332,69.28332 0 0 0 -69.283126,69.283106 69.28332,69.28332 0 0 0 69.283126,69.28313 69.28332,69.28332 0 0 0 69.2831,-69.28313 69.28332,69.28332 0 0 0 -69.2831,-69.283106 z m -8.85425,30.042086 v 6.88848 a 33.581141,33.581141 0 0 1 8.85425,-1.22886 33.581141,33.581141 0 0 1 8.85476,1.19888 v -6.8585 a 40.316033,40.316033 0 0 1 30.73558,31.87404 h -6.83731 a 33.581141,33.581141 0 0 1 0.82836,7.36698 33.581141,33.581141 0 0 1 -0.90485,7.367 h 6.9138 a 40.316033,40.316033 0 0 1 -30.73558,31.87401 v -6.88845 a 33.581141,33.581141 0 0 1 -8.85476,1.22835 33.581141,33.581141 0 0 1 -8.85425,-1.22835 v 6.88845 A 40.316033,40.316033 0 0 1 73.879839,154.42146 h 6.913801 a 33.581141,33.581141 0 0 1 -0.904346,-7.367 33.581141,33.581141 0 0 1 0.904346,-7.36698 h -6.913801 a 40.316033,40.316033 0 0 1 30.736121,-31.87404 z" />
    <circle
       style="fill:none;stroke:#000000;stroke-width:0.264583;stroke-linecap:round;stroke-linejoin:round;stroke-miterlimit:1.7;stroke-dasharray:none"
       id="circle10113"
       cx="113.47023"
       cy="147.05443"
       r="78.426758" />
    <circle
       style="fill:none;stroke:#000000;stroke-width:0.264583;stroke-linecap:round;stroke-linejoin:round;stroke-miterlimit:1.7;stroke-dasharray:none"
       id="circle10114"
       cx="113.47023"
       cy="147.05443"
       r="38.822849" />
    <path
       style="fill:none;stroke:#ff0000;stroke-width:0.264583;stroke-linecap:round;stroke-linejoin:round;stroke-miterlimit:1.7;stroke-dasharray:none"
       d="M 113.47026,54.901036 V 239.20785"
       id="path10114" />
    <path
       style="fill:none;stroke:#ff0000;stroke-width:0.264583;stroke-linecap:round;stroke-linejoin:round;stroke-miterlimit:1.7;stroke-dasharray:none"
       d="M 205.62368,147.05446 H 21.316864"
       id="path10115" />
    <path
       style="fill:none;stroke:#ff0000;stroke-width:0.264583;stroke-linecap:round;stroke-linejoin:round;stroke-miterlimit:1.7;stroke-dasharray:none"
       d="M 178.63256,81.89216 48.307964,212.21675"
       id="path10116" />
    <path
       style="fill:none;stroke:#ff0000;stroke-width:0.264583;stroke-linecap:round;stroke-linejoin:round;stroke-miterlimit:1.7;stroke-dasharray:none"
       d="M 48.307964,81.892134 178.63256,212.21675"
       id="path10117" />
    <path
       style="fill:none;stroke:#ff0000;stroke-width:0.264583;stroke-linecap:round;stroke-linejoin:round;stroke-miterlimit:1.7;stroke-dasharray:none"
       d="M 205.62366,154.43691 H 21.316844"
       id="path10118" />
    <circle
       style="fill:none;stroke:#000000;stroke-width:0.264583;stroke-linecap:round;stroke-linejoin:round;stroke-miterlimit:1.7;stroke-dasharray:none"
       id="circle10118"
       cx="113.47023"
       cy="147.05443"
       r="52.981358" />
    <circle
       style="fill:none;stroke:#000000;stroke-width:0.264583;stroke-linecap:round;stroke-linejoin:round;stroke-miterlimit:1.7;stroke-dasharray:none"
       id="circle10119"
       cx="113.47023"
       cy="147.05443"
       r="46.438622" />
    <circle
       style="fill:none;stroke:#000000;stroke-width:0.264583;stroke-linecap:round;stroke-linejoin:round;stroke-miterlimit:1.7;stroke-dasharray:none"
       id="circle10120"
       cx="-147.23236"
       cy="-39.098209"
       r="1.2183157"
       inkscape:transform-center-x="362.82808"
       inkscape:transform-center-y="0.0080333516"
       transform="rotate(-120)" />
    <circle
       style="fill:none;stroke:#000000;stroke-width:0.264583;stroke-linecap:round;stroke-linejoin:round;stroke-miterlimit:1.7;stroke-dasharray:none"
       id="circle10121"
       cx="-76.614594"
       cy="-210.8936"
       r="1.2183158"
       inkscape:transform-center-x="181.40711"
       inkscape:transform-center-y="314.22234"
       transform="scale(-1)" />
    <circle
       style="fill:none;stroke:#000000;stroke-width:0.264583;stroke-linecap:round;stroke-linejoin:round;stroke-miterlimit:1.7;stroke-dasharray:none"
       id="circle10122"
       cx="107.47343"
       cy="-235.63452"
       r="1.2183157"
       inkscape:transform-center-x="-181.42093"
       inkscape:transform-center-y="314.21431"
       transform="rotate(120)" />
    <circle
       style="fill:none;stroke:#000000;stroke-width:0.264583;stroke-linecap:round;stroke-linejoin:round;stroke-miterlimit:1.7;stroke-dasharray:none"
       id="circle10123"
       cx="220.94363"
       cy="-88.579941"
       r="1.2183156"
       inkscape:transform-center-x="-362.82803"
       inkscape:transform-center-y="-0.0080314636"
       transform="rotate(59.999998)" />
    <circle
       style="fill:none;stroke:#000000;stroke-width:0.264583;stroke-linecap:round;stroke-linejoin:round;stroke-miterlimit:1.7;stroke-dasharray:none"
       id="circle10124"
       cx="150.32599"
       cy="83.215309"
       r="1.2183158"
       inkscape:transform-center-x="-181.4071"
       inkscape:transform-center-y="-314.22234" />
    <circle
       style="fill:none;stroke:#000000;stroke-width:0.264583;stroke-linecap:round;stroke-linejoin:round;stroke-miterlimit:1.7;stroke-dasharray:none"
       id="circle10125"
       cx="-33.762112"
       cy="107.95614"
       r="1.2183156"
       inkscape:transform-center-x="181.42098"
       inkscape:transform-center-y="-314.21434"
       transform="rotate(-59.999998)" />
    <rect
       style="fill:none;stroke:#0000ff;stroke-width:0.264583;stroke-linecap:round;stroke-linejoin:round;stroke-miterlimit:1.7;stroke-dasharray:none"
       id="rect10125"
       width="39.956726"
       height="176.87959"
       x="93.478683"
       y="58.614647" />
    <rect
       style="fill:none;stroke:#ff7f2a;stroke-width:0.264583;stroke-linecap:round;stroke-linejoin:round;stroke-miterlimit:1.7;stroke-dasharray:none"
       id="rect10126"
       width="29.962524"
       height="176.88539"
       x="-38.738281"
       y="95.766678"
       transform="rotate(-45)" />
    <rect
       style="fill:none;stroke:#ff7f2a;stroke-width:0.264583;stroke-linecap:round;stroke-linejoin:round;stroke-miterlimit:1.7;stroke-dasharray:none"
       id="rect10127"
       width="29.962524"
       height="176.88539"
       x="169.22809"
       y="-64.685707"
       transform="rotate(45)" />
    <rect
       style="fill:none;stroke:#0000ff;stroke-width:0.264583;stroke-linecap:round;stroke-linejoin:round;stroke-miterlimit:1.7;stroke-dasharray:none"
       id="rect10128"
       width="27.963795"
       height="176.88667"
       x="-37.738922"
       y="95.766029"
       transform="rotate(-45)" />
    <rect
       style="fill:none;stroke:#0000ff;stroke-width:0.264583;stroke-linecap:round;stroke-linejoin:round;stroke-miterlimit:1.7;stroke-dasharray:none"
       id="rect10129"
       width="27.963795"
       height="176.88667"
       x="170.22751"
       y="-64.686287"
       transform="rotate(45)" />
    <ellipse
       style="fill:none;stroke:#ff7f2a;stroke-width:0.264583;stroke-linecap:round;stroke-linejoin:round;stroke-miterlimit:1.7;stroke-dasharray:none"
       id="ellipse10129"
       cx="165.93692"
       cy="154.5743"
       rx="0.98083383"
       ry="0.98083389" />
    <circle
       style="fill:none;stroke:#ff7f2a;stroke-width:0.264583;stroke-linecap:round;stroke-linejoin:round;stroke-miterlimit:1.7;stroke-dasharray:none"
       id="circle10129"
       cx="61.102753"
       cy="154.63373"
       r="0.97959721" />
    <circle
       style="fill:none;stroke:#ff7f2a;stroke-width:0.264583;stroke-linecap:round;stroke-linejoin:round;stroke-miterlimit:1.7;stroke-dasharray:none"
       id="circle10130"
       cx="80.58477"
       cy="114.23125"
       r="0.97708738"
       inkscape:transform-center-x="124.3804"
       inkscape:transform-center-y="-123.98773" />
    <circle
       style="fill:none;stroke:#ff7f2a;stroke-width:0.264583;stroke-linecap:round;stroke-linejoin:round;stroke-miterlimit:1.7;stroke-dasharray:none"
       id="circle10131"
       cx="114.12734"
       cy="-146.29884"
       r="0.97708738"
       inkscape:transform-center-x="-123.98776"
       inkscape:transform-center-y="-124.3804"
       transform="rotate(90)" />
    <circle
       style="fill:none;stroke:#ff7f2a;stroke-width:0.264583;stroke-linecap:round;stroke-linejoin:round;stroke-miterlimit:1.7;stroke-dasharray:none"
       id="circle10132"
       cx="-146.40271"
       cy="-179.84142"
       r="0.97708738"
       inkscape:transform-center-x="-124.38034"
       inkscape:transform-center-y="123.98773"
       transform="scale(-1)" />
    <circle
       style="fill:none;stroke:#ff7f2a;stroke-width:0.264583;stroke-linecap:round;stroke-linejoin:round;stroke-miterlimit:1.7;stroke-dasharray:none"
       id="circle10133"
       cx="-179.94528"
       cy="80.688637"
       r="0.97708738"
       inkscape:transform-center-x="123.98782"
       inkscape:transform-center-y="124.38037"
       transform="rotate(-90)" />
    <path
       style="fill:none;stroke:#ff7f2a;stroke-width:0.264583;stroke-linecap:round;stroke-linejoin:round;stroke-miterlimit:1.7;stroke-dasharray:none"
       d="m 95.506484,109.34173 2.231469,2.22033 c 0,0 2.870837,-1.38274 6.878007,-2.30672 0,0 0,-0.74758 0,-1.4419 -3.97675,0.33602 -9.109476,1.52829 -9.109476,1.52829 z"
       id="path10133"
       sodipodi:nodetypes="ccscc" />
    <path
       style="fill:none;stroke:#ff7f2a;stroke-width:0.264583;stroke-linecap:round;stroke-linejoin:round;stroke-miterlimit:1.7;stroke-dasharray:none"
       d="m 131.43444,109.34173 -2.23147,2.22033 c 0,0 -2.87084,-1.38274 -6.878,-2.30672 0,0 0,-0.74758 0,-1.4419 3.97674,0.33602 9.10947,1.52829 9.10947,1.52829 z"
       id="path10134"
       sodipodi:nodetypes="ccscc" />
    <path
       style="fill:none;stroke:#ff7f2a;stroke-width:0.264583;stroke-linecap:round;stroke-linejoin:round;stroke-miterlimit:1.7;stroke-dasharray:none"
       d="m 95.506484,184.76721 2.231469,-2.22035 c 0,0 2.870837,1.38276 6.878007,2.30674 0,0 0,0.74758 0,1.44187 -3.97675,-0.33599 -9.109476,-1.52826 -9.109476,-1.52826 z"
       id="path10135"
       sodipodi:nodetypes="ccscc" />
    <path
       style="fill:none;stroke:#ff7f2a;stroke-width:0.264583;stroke-linecap:round;stroke-linejoin:round;stroke-miterlimit:1.7;stroke-dasharray:none"
       d="m 131.43444,184.76721 -2.23147,-2.22035 c 0,0 -2.87084,1.38276 -6.878,2.30674 0,0 0,0.74758 0,1.44187 3.97674,-0.33599 9.10947,-1.52826 9.10947,-1.52826 z"
       id="path10136"
       sodipodi:nodetypes="ccscc" />
    <path
       style="fill:none;stroke:#ff7f2a;stroke-width:0.264583;stroke-linecap:round;stroke-linejoin:round;stroke-miterlimit:1.7;stroke-dasharray:none"
       d="m 151.37582,130.32229 -1.98882,1.99451 c 0,0 1.41293,3.34012 2.23168,7.37068 h 1.44187 c -0.33599,-3.97674 -1.68473,-9.36519 -1.68473,-9.36519 z"
       id="path10137"
       sodipodi:nodetypes="ccccc" />
    <path
       style="fill:none;stroke:#ff7f2a;stroke-width:0.264583;stroke-linecap:round;stroke-linejoin:round;stroke-miterlimit:1.7;stroke-dasharray:none"
       d="m 151.37582,163.78663 -1.98882,-1.99451 c 0,0 1.14808,-2.34619 2.2007,-7.37066 h 1.47285 c -0.33599,3.97674 -1.68473,9.36517 -1.68473,9.36517 z"
       id="path10138"
       sodipodi:nodetypes="ccccc" />
    <path
       style="fill:none;stroke:#ff7f2a;stroke-width:0.264583;stroke-linecap:round;stroke-linejoin:round;stroke-miterlimit:1.7;stroke-dasharray:none"
       d="m 75.564574,130.32229 1.98882,1.99451 c 0,0 -1.412928,3.34012 -2.231681,7.37068 h -1.441874 c 0.335995,-3.97674 1.684735,-9.36519 1.684735,-9.36519 z"
       id="path10139"
       sodipodi:nodetypes="ccccc" />
    <path
       style="fill:none;stroke:#ff7f2a;stroke-width:0.264583;stroke-linecap:round;stroke-linejoin:round;stroke-miterlimit:1.7;stroke-dasharray:none"
       d="m 75.564574,163.78663 1.98882,-1.99451 c 0,0 -1.14808,-2.34619 -2.200699,-7.37066 h -1.472856 c 0.335995,3.97674 1.684735,9.36517 1.684735,9.36517 z"
       id="path10140"
       sodipodi:nodetypes="ccccc" />
    <circle
       style="fill:none;stroke:#000000;stroke-width:0.529167;stroke-linecap:round;stroke-linejoin:round;stroke-miterlimit:1.7;stroke-dasharray:none"
       id="circle10140"
       cx="418.2702"
       cy="153.47275"
       r="88.329147" />
    <path
       id="path10141"
       style="fill:none;stroke:#000000;stroke-width:0.529167;stroke-linecap:round;stroke-linejoin:round;stroke-miterlimit:1.7;stroke-dasharray:none"
       d="m 418.27023,84.18967 a 69.28332,69.28332 0 0 0 -69.28313,69.2831 69.28332,69.28332 0 0 0 69.28313,69.28311 69.28332,69.28332 0 0 0 69.2831,-69.28311 69.28332,69.28332 0 0 0 -69.2831,-69.2831 z m -8.85426,31.48385 v 5.44669 a 33.581141,33.581141 0 0 1 8.85426,-1.22886 33.581141,33.581141 0 0 1 8.85476,1.19891 v -5.41674 c 4.00711,0.92398 6.87813,2.30685 6.87813,2.30685 l 1.02576,-1.02113 a 40.316033,40.316033 0 0 1 20.18533,20.74601 l -1.02732,1.02991 c 0,0 1.41316,3.34008 2.23192,7.37061 h -5.39555 a 33.581141,33.581141 0 0 1 0.82836,7.367 33.581141,33.581141 0 0 1 -0.90485,7.36698 h 5.44103 c -1.05262,5.02447 -2.20091,7.37063 -2.20091,7.37063 l 1.02732,1.02989 a 40.316033,40.316033 0 0 1 -20.18533,20.74603 l -1.02576,-1.02113 c 0,0 -2.87102,1.38287 -6.87813,2.30685 v -5.44671 a 33.581141,33.581141 0 0 1 -8.85476,1.22835 33.581141,33.581141 0 0 1 -8.85426,-1.22835 v 5.44671 c -4.00716,-0.92398 -6.87813,-2.30685 -6.87813,-2.30685 l -1.02629,1.02113 a 40.316033,40.316033 0 0 1 -20.18533,-20.74603 l 1.02732,-1.02989 c 0,0 -1.14826,-2.34616 -2.20088,-7.37063 h 5.441 a 33.581141,33.581141 0 0 1 -0.90435,-7.36698 33.581141,33.581141 0 0 1 0.90435,-7.367 h -5.47201 c 0.81876,-4.03053 2.23189,-7.37061 2.23189,-7.37061 l -1.02732,-1.02991 a 40.316033,40.316033 0 0 1 20.18533,-20.74601 l 1.02629,1.02113 c 0,0 2.87097,-1.38287 6.87813,-2.30685 z" />
    <circle
       style="fill:none;stroke:#000000;stroke-width:0.529167;stroke-linecap:round;stroke-linejoin:round;stroke-miterlimit:1.7;stroke-dasharray:none"
       id="circle10141"
       cx="418.2702"
       cy="153.47275"
       r="78.426758" />
    <circle
       style="fill:none;stroke:#000000;stroke-width:0.529167;stroke-linecap:round;stroke-linejoin:round;stroke-miterlimit:1.7;stroke-dasharray:none"
       id="circle10142"
       cx="-305.19077"
       cy="221.65718"
       r="1.2183157"
       inkscape:transform-center-x="362.82808"
       inkscape:transform-center-y="0.0080333516"
       transform="rotate(-120)" />
    <circle
       style="fill:none;stroke:#000000;stroke-width:0.529167;stroke-linecap:round;stroke-linejoin:round;stroke-miterlimit:1.7;stroke-dasharray:none"
       id="circle10143"
       cx="-381.41458"
       cy="-217.3119"
       r="1.2183158"
       inkscape:transform-center-x="181.40711"
       inkscape:transform-center-y="314.22234"
       transform="scale(-1)" />
    <circle
       style="fill:none;stroke:#000000;stroke-width:0.529167;stroke-linecap:round;stroke-linejoin:round;stroke-miterlimit:1.7;stroke-dasharray:none"
       id="circle10144"
       cx="-39.36816"
       cy="-502.80814"
       r="1.2183157"
       inkscape:transform-center-x="-181.42093"
       inkscape:transform-center-y="314.21431"
       transform="rotate(120)" />
    <circle
       style="fill:none;stroke:#000000;stroke-width:0.529167;stroke-linecap:round;stroke-linejoin:round;stroke-miterlimit:1.7;stroke-dasharray:none"
       id="circle10145"
       cx="378.90207"
       cy="-349.33533"
       r="1.2183156"
       inkscape:transform-center-x="-362.82803"
       inkscape:transform-center-y="-0.0080314636"
       transform="rotate(59.999998)" />
    <circle
       style="fill:none;stroke:#000000;stroke-width:0.529167;stroke-linecap:round;stroke-linejoin:round;stroke-miterlimit:1.7;stroke-dasharray:none"
       id="circle10146"
       cx="455.12598"
       cy="89.633621"
       r="1.2183158"
       inkscape:transform-center-x="-181.4071"
       inkscape:transform-center-y="-314.22234" />
    <circle
       style="fill:none;stroke:#000000;stroke-width:0.529167;stroke-linecap:round;stroke-linejoin:round;stroke-miterlimit:1.7;stroke-dasharray:none"
       id="circle10147"
       cx="113.07948"
       cy="375.12976"
       r="1.2183156"
       inkscape:transform-center-x="181.42098"
       inkscape:transform-center-y="-314.21434"
       transform="rotate(-59.999998)" />
    <ellipse
       style="fill:none;stroke:#000000;stroke-width:0.529167;stroke-linecap:round;stroke-linejoin:round;stroke-miterlimit:1.7;stroke-dasharray:none"
       id="ellipse10147"
       cx="470.73691"
       cy="160.9926"
       rx="0.98083383"
       ry="0.98083389" />
    <circle
       style="fill:none;stroke:#000000;stroke-width:0.529167;stroke-linecap:round;stroke-linejoin:round;stroke-miterlimit:1.7;stroke-dasharray:none"
       id="circle10148"
       cx="365.90274"
       cy="161.05203"
       r="0.97959721" />
    <circle
       style="fill:none;stroke:#000000;stroke-width:0.529167;stroke-linecap:round;stroke-linejoin:round;stroke-miterlimit:1.7;stroke-dasharray:none"
       id="circle10149"
       cx="385.38477"
       cy="120.64956"
       r="0.97708738"
       inkscape:transform-center-x="124.3804"
       inkscape:transform-center-y="-123.98773" />
    <circle
       style="fill:none;stroke:#000000;stroke-width:0.529167;stroke-linecap:round;stroke-linejoin:round;stroke-miterlimit:1.7;stroke-dasharray:none"
       id="circle10150"
       cx="120.54565"
       cy="-451.09882"
       r="0.97708738"
       inkscape:transform-center-x="-123.98776"
       inkscape:transform-center-y="-124.3804"
       transform="rotate(90)" />
    <circle
       style="fill:none;stroke:#000000;stroke-width:0.529167;stroke-linecap:round;stroke-linejoin:round;stroke-miterlimit:1.7;stroke-dasharray:none"
       id="circle10151"
       cx="-451.2027"
       cy="-186.25974"
       r="0.97708738"
       inkscape:transform-center-x="-124.38034"
       inkscape:transform-center-y="123.98773"
       transform="scale(-1)" />
    <circle
       style="fill:none;stroke:#000000;stroke-width:0.529167;stroke-linecap:round;stroke-linejoin:round;stroke-miterlimit:1.7;stroke-dasharray:none"
       id="circle10152"
       cx="-186.3636"
       cy="385.48862"
       r="0.97708738"
       inkscape:transform-center-x="123.98782"
       inkscape:transform-center-y="124.38037"
       transform="rotate(-90)" />
  </g>
</svg>
